<svg width="100" height="134" viewBox="0 0 100 134" fill="none" xmlns="http://www.w3.org/2000/svg">
<path fill-rule="evenodd" clip-rule="evenodd" d="M50 133.616C79.8901 116.334 100 84.0323 100 47.0361C100 33.6535 97.3686 20.8851 92.5949 9.21972C79.823 3.30244 65.5915 0 50.5882 0C35.0127 0 20.2688 3.55921 7.12635 9.90829C2.52901 21.3869 0 33.9163 0 47.0361C0 84.0323 20.1099 116.334 50 133.616Z" fill="#0892D4"/>
<path fill-rule="evenodd" clip-rule="evenodd" d="M50.4307 133.641C80.0022 116.229 99.8528 84.0206 99.8528 47.166C99.8528 33.7464 97.2209 20.9428 92.4461 9.24519C79.6715 3.31156 65.437 0 50.4307 0V133.641Z" fill="#61DBFB"/>
<path fill-rule="evenodd" clip-rule="evenodd" d="M10.1874 82.8536L21.466 57.1715C21.6159 56.8201 21.6909 56.5502 21.6909 56.3619C21.6909 56.1736 21.6159 55.8787 21.466 55.477L11.4988 33.1841C11.249 32.6067 11.2615 32.0983 11.5363 31.659C11.8111 31.2197 12.1983 31 12.6979 31H21.3911C22.0156 31 22.5027 31.3891 22.8525 32.1674L29.2225 48.1339C29.3224 48.3849 29.4723 48.5105 29.6721 48.5105C29.872 48.5105 30.0219 48.3849 30.1218 48.1339L36.4918 32.1674C36.8415 31.3891 37.3286 31 37.9532 31H46.6464C47.146 31 47.5394 31.2197 47.8267 31.659C48.114 32.0983 48.1202 32.6067 47.8454 33.1841L37.8782 55.5523C37.7283 55.954 37.6534 56.2427 37.6534 56.4184C37.6534 56.5941 37.7283 56.8703 37.8782 57.2469L49.1569 82.8536C49.2818 83.1297 49.3443 83.3933 49.3443 83.6444C49.3443 83.9205 49.2693 84.159 49.1194 84.3598C48.8447 84.7866 48.445 85 47.9204 85H38.8899C38.0656 85 37.5285 84.6109 37.2787 83.8326L30.1218 65.569C30.0219 65.318 29.872 65.1925 29.6721 65.1925C29.4723 65.1925 29.3224 65.318 29.2225 65.569L22.0656 83.8326C21.8158 84.6109 21.2787 85 20.4543 85H11.4239C10.9243 85 10.5246 84.7741 10.2248 84.3222C10.0749 84.0962 10 83.8452 10 83.569C10 83.3431 10.0625 83.1046 10.1874 82.8536ZM55.452 83.4561V32.5439C55.452 32.1423 55.6081 31.7845 55.9204 31.4707C56.2326 31.1569 56.5886 31 56.9883 31H73.8876C76.0859 31 78.1655 31.4268 80.1265 32.2803C82.0874 33.1339 83.7986 34.295 85.26 35.7636C86.7213 37.2322 87.8766 38.9519 88.726 40.9226C89.5753 42.8933 90 44.9833 90 47.1925C90 49.4519 89.5753 51.5607 88.726 53.5188C87.8766 55.477 86.7213 57.1904 85.26 58.659C83.7986 60.1276 82.0874 61.2887 80.1265 62.1423C78.1655 62.9958 76.0859 63.4226 73.8876 63.4226H66.9555C66.4559 63.4226 66.2061 63.6736 66.2061 64.1757V83.4561C66.2061 83.8577 66.05 84.2155 65.7377 84.5293C65.4255 84.8431 65.0695 85 64.6698 85H56.9883C56.5886 85 56.2326 84.8431 55.9204 84.5293C55.6081 84.2155 55.452 83.8577 55.452 83.4561ZM66.2061 51.8243C66.2061 52.3264 66.4559 52.59 66.9555 52.6151H73.8876C75.3614 52.6151 76.6229 52.0879 77.6721 51.0335C78.7213 49.9791 79.2459 48.6988 79.2459 47.1925C79.2459 45.7113 78.7213 44.4435 77.6721 43.3891C76.6229 42.3347 75.3614 41.8075 73.8876 41.8075H66.9555C66.4559 41.8075 66.2061 42.0711 66.2061 42.5983V51.8243Z" fill="white"/>
</svg>
