<svg width="100" height="134" viewBox="0 0 100 134" fill="none" xmlns="http://www.w3.org/2000/svg">
<path fill-rule="evenodd" clip-rule="evenodd" d="M50 133.616C79.8901 116.334 100 84.0323 100 47.0361C100 33.6535 97.3686 20.8851 92.5949 9.21972C79.823 3.30244 65.5915 0 50.5882 0C35.0127 0 20.2688 3.55921 7.12635 9.90829C2.52901 21.3869 0 33.9163 0 47.0361C0 84.0323 20.1099 116.334 50 133.616Z" fill="#0892D4"/>
<path fill-rule="evenodd" clip-rule="evenodd" d="M50.4307 133.641C80.0022 116.229 99.8528 84.0206 99.8528 47.166C99.8528 33.7464 97.2209 20.9428 92.4461 9.24519C79.6715 3.31156 65.437 0 50.4307 0V133.641Z" fill="#61DBFB"/>
<path fill-rule="evenodd" clip-rule="evenodd" d="M10.1874 70.5972L21.466 45.0422C21.6159 44.6924 21.6909 44.4239 21.6909 44.2365C21.6909 44.0492 21.6159 43.7557 21.466 43.356L11.4988 21.1733C11.249 20.5987 11.2615 20.0929 11.5363 19.6557C11.8111 19.2186 12.1983 19 12.6979 19H21.3911C22.0156 19 22.5027 19.3872 22.8525 20.1616L29.2225 36.0492C29.3224 36.299 29.4723 36.4239 29.6721 36.4239C29.872 36.4239 30.0219 36.299 30.1218 36.0492L36.4918 20.1616C36.8415 19.3872 37.3286 19 37.9532 19H46.6464C47.146 19 47.5394 19.2186 47.8267 19.6557C48.114 20.0929 48.1202 20.5987 47.8454 21.1733L37.8782 43.4309C37.7283 43.8306 37.6534 44.1179 37.6534 44.2927C37.6534 44.4676 37.7283 44.7424 37.8782 45.1171L49.1569 70.5972C49.2818 70.872 49.3443 71.1343 49.3443 71.3841C49.3443 71.6589 49.2693 71.8962 49.1194 72.096C48.8447 72.5207 48.445 72.733 47.9204 72.733H38.8899C38.0656 72.733 37.5285 72.3458 37.2787 71.5714L30.1218 53.3981C30.0219 53.1483 29.872 53.0234 29.6721 53.0234C29.4723 53.0234 29.3224 53.1483 29.2225 53.3981L22.0656 71.5714C21.8158 72.3458 21.2787 72.733 20.4543 72.733H11.4239C10.9243 72.733 10.5246 72.5082 10.2248 72.0585C10.0749 71.8337 10 71.5839 10 71.3091C10 71.0843 10.0625 70.847 10.1874 70.5972ZM55.452 71.1967V20.5363C55.452 20.1366 55.6081 19.7806 55.9204 19.4684C56.2326 19.1561 56.5886 19 56.9883 19H73.8876C76.0859 19 78.1655 19.4247 80.1265 20.274C82.0874 21.1233 83.7986 22.2787 85.26 23.74C86.7213 25.2014 87.8767 26.9126 88.726 28.8735C89.5753 30.8345 90 32.9141 90 35.1124C90 37.3607 89.5753 39.459 88.726 41.4075C87.8767 43.356 86.7213 45.0609 85.26 46.5222C83.7986 47.9836 82.0874 49.1389 80.1265 49.9883C78.1655 50.8376 76.0859 51.2623 73.8876 51.2623H66.9555C66.4559 51.2623 66.2061 51.5121 66.2061 52.0117V71.1967C66.2061 71.5964 66.05 71.9524 65.7377 72.2646C65.4254 72.5769 65.0695 72.733 64.6698 72.733H56.9883C56.5886 72.733 56.2326 72.5769 55.9204 72.2646C55.6081 71.9524 55.452 71.5964 55.452 71.1967ZM66.2061 39.7213C66.2061 40.2209 66.4559 40.4832 66.9555 40.5082H73.8876C75.3614 40.5082 76.6229 39.9836 77.6721 38.9344C78.7213 37.8852 79.2459 36.6112 79.2459 35.1124C79.2459 33.6386 78.7213 32.3771 77.6721 31.3279C76.6229 30.2787 75.3614 29.7541 73.8876 29.7541H66.9555C66.4559 29.7541 66.2061 30.0164 66.2061 30.541V39.7213Z" fill="white"/>
</svg>
