<svg width="100" height="134" viewBox="0 0 100 134" fill="none" xmlns="http://www.w3.org/2000/svg">
<path fill-rule="evenodd" clip-rule="evenodd" d="M50 133.616C79.8901 116.334 100 84.0323 100 47.0361C100 33.6535 97.3686 20.8851 92.5949 9.21972C79.823 3.30244 65.5915 0 50.5882 0C35.0127 0 20.2688 3.55921 7.12635 9.90829C2.52901 21.3869 0 33.9163 0 47.0361C0 84.0323 20.1099 116.334 50 133.616Z" fill="#0892D4"/>
<path fill-rule="evenodd" clip-rule="evenodd" d="M50.4307 133.641C80.0022 116.229 99.8528 84.0206 99.8528 47.166C99.8528 33.7464 97.2209 20.9428 92.4461 9.24519C79.6715 3.31156 65.437 0 50.4307 0V133.641Z" fill="#61DBFB"/>
<path fill-rule="evenodd" clip-rule="evenodd" d="M15.1639 76.1318L25.0328 53.7789C25.1639 53.473 25.2295 53.2381 25.2295 53.0743C25.2295 52.9104 25.1639 52.6537 25.0328 52.304L16.3115 32.901C16.0929 32.3984 16.1038 31.956 16.3443 31.5736C16.5847 31.1912 16.9235 31 17.3607 31H24.9672C25.5137 31 25.9399 31.3387 26.2459 32.016L31.8197 45.9128C31.9071 46.1313 32.0382 46.2406 32.2131 46.2406C32.388 46.2406 32.5191 46.1313 32.6066 45.9128L38.1803 32.016C38.4863 31.3387 38.9126 31 39.459 31H47.0656C47.5027 31 47.847 31.1912 48.0984 31.5736C48.3497 31.956 48.3552 32.3984 48.1148 32.901L39.3934 52.3696C39.2623 52.7192 39.1967 52.9705 39.1967 53.1234C39.1967 53.2764 39.2623 53.5167 39.3934 53.8445L49.2623 76.1318C49.3716 76.3722 49.4262 76.6016 49.4262 76.8201C49.4262 77.0604 49.3607 77.268 49.2295 77.4428C48.9891 77.8143 48.6393 78 48.1803 78H40.2787C39.5574 78 39.0874 77.6613 38.8689 76.984L32.6066 61.0879C32.5191 60.8694 32.388 60.7601 32.2131 60.7601C32.0382 60.7601 31.9071 60.8694 31.8197 61.0879L25.5574 76.984C25.3388 77.6613 24.8689 78 24.1475 78H16.2459C15.8087 78 15.459 77.8034 15.1967 77.41C15.0656 77.2134 15 76.9949 15 76.7545C15 76.5579 15.0546 76.3503 15.1639 76.1318ZM54.7705 76.6562V32.3438C54.7705 31.9942 54.9071 31.6828 55.1803 31.4097C55.4536 31.1366 55.765 31 56.1148 31H70.9016C72.8251 31 74.6448 31.3715 76.3607 32.1144C78.0765 32.8573 79.5738 33.8678 80.8525 35.1461C82.1312 36.4243 83.1421 37.9211 83.8852 39.6363C84.6284 41.3516 85 43.1706 85 45.0934C85 47.06 84.6284 48.8954 83.8852 50.5997C83.1421 52.3041 82.1312 53.7953 80.8525 55.0736C79.5738 56.3518 78.0765 57.3624 76.3607 58.1053C74.6448 58.8482 72.8251 59.2197 70.9016 59.2197H64.8361C64.3989 59.2197 64.1803 59.4382 64.1803 59.8752V76.6562C64.1803 77.0058 64.0437 77.3172 63.7705 77.5903C63.4973 77.8634 63.1858 78 62.8361 78H56.1148C55.765 78 55.4536 77.8634 55.1803 77.5903C54.9071 77.3172 54.7705 77.0058 54.7705 76.6562ZM64.1803 49.1248C64.1803 49.5618 64.3989 49.7913 64.8361 49.8131H70.9016C72.1913 49.8131 73.2951 49.3543 74.2131 48.4365C75.1311 47.5188 75.5902 46.4045 75.5902 45.0934C75.5902 43.8043 75.1311 42.7008 74.2131 41.7831C73.2951 40.8654 72.1913 40.4066 70.9016 40.4066H64.8361C64.3989 40.4066 64.1803 40.636 64.1803 41.0948V49.1248Z" fill="white"/>
</svg>
